<svg id="Lager_1" data-name="Lager 1" xmlns="http://www.w3.org/2000/svg" xmlns:xlink="http://www.w3.org/1999/xlink" viewBox="0 0 375 364.72" preserveAspectRatio="xMidYMid slice"><defs><style>
.cls-1{fill:url(#Namnlös_övertoning_4);}
.cls-2{fill:#fff;}
.cls-3{fill:url(#Namnlös_övertoning_11);}
.cls-4{fill:url(#Namnlös_övertoning_26);}
.cls-5{fill:url(#Namnlös_övertoning_10);}.cls-6{fill:url(#Namnlös_övertoning_14);}
.cls-7{fill:url(#Namnlös_övertoning_26-2);}
.cls-8{fill:url(#Namnlös_övertoning_19);}
.cls-9{fill:#1a431f;}
.cls-10{fill:url(#Namnlös_övertoning_26-3);}
.cls-11{fill:#aec689;}.cls-12{fill:#14361f;}</style><linearGradient id="Namnlös_övertoning_4" x1="188.71" y1="-5.76" x2="185.9" y2="416.65" gradientUnits="userSpaceOnUse"><stop offset="0.21" stop-color="#cbeef6"/><stop offset="1" stop-color="#009ce0"/></linearGradient><linearGradient id="Namnlös_övertoning_11" x1="188.36" y1="193.01" x2="187.93" y2="235.17" gradientUnits="userSpaceOnUse"><stop offset="0" stop-color="#0087a2"/><stop offset="0.92" stop-color="#a1cbc5"/></linearGradient><linearGradient id="Namnlös_övertoning_26" x1="316" y1="261.61" x2="315.29" y2="160.35" gradientUnits="userSpaceOnUse"><stop offset="0.05" stop-color="#14361f"/><stop offset="0.09" stop-color="#1b3a22"/><stop offset="0.41" stop-color="#5f623c"/><stop offset="0.68" stop-color="#907f4f"/><stop offset="0.89" stop-color="#af915b"/><stop offset="1" stop-color="#ba985f"/></linearGradient><linearGradient id="Namnlös_övertoning_10" x1="187.55" y1="280.36" x2="187.96" y2="190.91" gradientUnits="userSpaceOnUse"><stop offset="0.09" stop-color="#cbeef6"/><stop offset="0.77" stop-color="#009ce0"/></linearGradient><linearGradient id="Namnlös_övertoning_14" x1="187.46" y1="303.02" x2="187.84" y2="219.34" gradientUnits="userSpaceOnUse"><stop offset="0.21" stop-color="#cbeef6"/><stop offset="0.75" stop-color="#0087a2"/></linearGradient><linearGradient id="Namnlös_övertoning_26-2" x1="156.75" y1="322.5" x2="157.45" y2="235.41" xlink:href="#Namnlös_övertoning_26"/><linearGradient id="Namnlös_övertoning_19" x1="186.83" y1="398.66" x2="187.71" y2="278.6" gradientUnits="userSpaceOnUse"><stop offset="0.07" stop-color="#aec689"/><stop offset="0.36" stop-color="#759460"/><stop offset="0.66" stop-color="#44683d"/><stop offset="0.88" stop-color="#254d27"/><stop offset="1" stop-color="#1a431f"/></linearGradient><linearGradient id="Namnlös_övertoning_26-3" x1="55.7" y1="392.8" x2="55.01" y2="246.36" xlink:href="#Namnlös_övertoning_26"/></defs><path class="cls-1" d="M375,0V351.2a162.3,162.3,0,0,0-56-4.2c-15.14,1.38-29.14,4.75-43.07,8.2h0c-4,1-7.9,2-11.87,2.91h0c-1.6.38-3.2.76-4.8,1.12a205.69,205.69,0,0,1-34.86,5.34c-14.18.78-28-1.48-41.74-4.74h0c-15.41-3.66-30.65-8.6-46-11.91a150.09,150.09,0,0,0-26.21-3.52A100.58,100.58,0,0,0,95,345c-8.31,1-16.18,1.61-24,2.53h0a149.59,149.59,0,0,0-27,5.31c-1.62.5-3.25,1-4.89,1.4a136.67,136.67,0,0,1-26.74,4.31q-3.81.24-7.63.26c-1.58,0-3.16,0-4.74,0V0Z"/><path class="cls-2" d="M124.45,38.52c3,.11,6.55,0,8.5-2.34a5.45,5.45,0,0,0-.65-7.28,6,6,0,0,0-7.44,0c-.48-3.49-1.63-7.14-4.41-9.29s-7.55-1.91-9.19,1.2a21.8,21.8,0,0,0-3.52-8.4,9.57,9.57,0,0,0-7.86-4c-3.06.2-6,2.81-5.88,5.87-3.48-2.56-8.51-5.09-11.7-2.18-2.61,2.37-1.82,6.57-.82,10H74.11a6,6,0,0,0-2.63.4,4.08,4.08,0,0,0-1.83,4.46A11.8,11.8,0,0,0,72,31.41c-1.69.12-3.49.28-4.78,1.36s-1.62,3.43-.2,4.33c3,1.89,6.68,2,10.21,1.83a62.72,62.72,0,0,1,6.8-.18c4.13.1,8.87.13,13-.18,4.34-.32,8.7-.45,12.88-.65C114.81,37.69,119.63,38.35,124.45,38.52Z"/><path class="cls-3" d="M375,227.83V351.2a162.3,162.3,0,0,0-56-4.2c-15.14,1.38-29.14,4.75-43.07,8.2h0c-4,1-7.9,2-11.87,2.91h0l-3.69-.51c-31.09-4.17-62.23-7.78-93.52-9.06l-2.48-.1c-9.25-.34-18.5-.47-27.76-.52a150.09,150.09,0,0,0-26.21-3.52A100.58,100.58,0,0,0,95,345c-8.31,1-16.18,1.61-24,2.53h0c-12.36-.37-24.71-1.09-37-2.44l-.66-.07c-3.16-.35-6.33-.74-9.48-1.23a130.34,130.34,0,0,1-14.73-3,86.68,86.68,0,0,1-9.12-3v-136q1.88-.13,3.75-.18c1.27,0,2.53,0,3.8,0,2.39,0,4.77.2,7.14.46a76.83,76.83,0,0,1,10,1.72c8.26,2,16.11,5.24,24,8.49,4.15,1.71,8.3,3.42,12.52,5l1.45.51,1.19.42q5.62,1.92,11.38,3.38h0c.68.19,1.36.36,2,.53,3,.72,6,1.36,9.07,1.89a156.56,156.56,0,0,0,36.39,2.19h0a152.57,152.57,0,0,0,23.59-3.22l.89-.2c2.26-.5,4.52-1.05,6.78-1.59l3.33-.78a75,75,0,0,1,17.34-2.31c10,.11,19.65,3.5,29.57,4.72,23.32,2.88,46.32-6.25,69.47-10.75a113.5,113.5,0,0,1,22-2.35h0a76,76,0,0,1,8.1.46c2,.22,3.88.52,5.79.88h0c2.86.54,5.68,1.23,8.49,2,1.33.37,2.65.76,4,1.17,5.51,1.7,11,3.7,16.43,5.6l1.33.46a145.84,145.84,0,0,0,18,5.19A165.85,165.85,0,0,0,375,227.83Z"/><path class="cls-4" d="M326.83,222.38c-9.37-1.56-19-3.12-28.29-1.35a21.38,21.38,0,0,1-3.73.55c-2.14,0-4.36-.7-6.39,0a41.41,41.41,0,0,0,8-6.52,13.85,13.85,0,0,1-6,0,64.73,64.73,0,0,0,10.26-11.88l-6.49-.43a46.29,46.29,0,0,0,7.44-8.3l-5.13,0a25.07,25.07,0,0,0,7.62-9.46,15.2,15.2,0,0,1-5.48-.69,38.16,38.16,0,0,0,8.07-9.71,12.5,12.5,0,0,1-5.36.58,34.56,34.56,0,0,0,7.69-9.74,5.77,5.77,0,0,1-4.05-.21,30.46,30.46,0,0,0,6.54-7.58,3.18,3.18,0,0,1-2.58.9,16.43,16.43,0,0,0,4.94-8.56,19.29,19.29,0,0,0,6.33,7.95,6,6,0,0,1-3-.47,16.91,16.91,0,0,0,8.69,7.8,8.3,8.3,0,0,1-4.48.93,12.2,12.2,0,0,0,8.25,6.9,8.88,8.88,0,0,1-7.7,2.4,25.5,25.5,0,0,0,9.38,9.49,10.35,10.35,0,0,1-5.33.72,18.47,18.47,0,0,0,7.07,8.57l-6.42,1a33,33,0,0,0,9,8.1l-6,1a20.24,20.24,0,0,0,9.45,7.1,19.55,19.55,0,0,1-6.66.92c2.9,3.19,6.29,6.61,10.52,6.66C337.23,221.26,332.92,223.39,326.83,222.38Z"/><path class="cls-5" d="M375,271.24v80a162.3,162.3,0,0,0-56-4.2c-15.14,1.38-29.14,4.75-43.07,8.2h0c-4,1-7.9,2-11.87,2.91h0c-1.6.38-3.2.76-4.8,1.12a205.69,205.69,0,0,1-34.86,5.34c-14.18.78-28-1.48-41.74-4.74h0c-15.41-3.66-30.65-8.6-46-11.91a150.09,150.09,0,0,0-26.21-3.52A100.58,100.58,0,0,0,95,345c-8.31,1-16.18,1.61-24,2.53h0a149.59,149.59,0,0,0-27,5.31c-1.62.5-3.25,1-4.89,1.4a136.67,136.67,0,0,1-26.74,4.31q-3.81.24-7.63.26c-1.58,0-3.16,0-4.74,0V233.16l.71.26,1.39.52q3.09,1.13,6.22,2.1a154.18,154.18,0,0,0,30.29,6.24h0a156.18,156.18,0,0,0,20.17.79l1.82-.06c3.38-.13,6.76-.37,10.12-.73a148.15,148.15,0,0,0,16.49-2.64c2.28-.5,4.56-1,6.84-1.59,3.69-.88,7.38-1.76,11.1-2.38a58.44,58.44,0,0,1,10.4-.91A83.4,83.4,0,0,1,131.85,237c4.41.93,8.82,1.92,13.28,2.47,1.08.13,2.17.24,3.25.32,1.27.1,2.52.17,3.79.2h0a86.11,86.11,0,0,0,10.65-.39h0c27.31-2.51,54.33-15.84,81.84-12.77,8.07.9,15.84,3.18,23.54,5.78,10.08,3.41,20.07,7.38,30.48,9.54q2.78.57,5.59,1h0l1.71.26h0c1.39.19,2.79.36,4.19.52,7.72.89,15.55,1.38,23.15,2.52a91.34,91.34,0,0,1,10.11,2h0a59.17,59.17,0,0,1,7.87,2.65h0c.29.11.59.24.88.38h0a47.15,47.15,0,0,1,11.66,7.2A57.53,57.53,0,0,1,375,271.24Z"/><path class="cls-6" d="M375,258.41V351.2a162.3,162.3,0,0,0-56-4.2c-15.14,1.38-29.14,4.75-43.07,8.2h0c-4,1-7.9,2-11.87,2.91h0c-1.6.38-3.2.76-4.8,1.12a205.69,205.69,0,0,1-34.86,5.34c-14.18.78-28-1.48-41.74-4.74h0c-15.41-3.66-30.65-8.6-46-11.91a150.09,150.09,0,0,0-26.21-3.52A100.58,100.58,0,0,0,95,345c-8.31,1-16.18,1.61-24,2.53h0a149.59,149.59,0,0,0-27,5.31c-1.62.5-3.25,1-4.89,1.4a136.67,136.67,0,0,1-26.74,4.31q-3.81.24-7.63.26c-1.58,0-3.16,0-4.74,0V238a82.42,82.42,0,0,1,8.32-2q3.24-.6,6.51-.95a82.21,82.21,0,0,1,19.58.28q4,.54,7.87,1.47a128.67,128.67,0,0,1,17.06,5.66l1.27.51c5.22,2.1,10.4,4.34,15.66,6.34h0c.83.32,1.65.63,2.49.93,4.16,1.51,8.39,2.83,12.66,4a155.65,155.65,0,0,0,19.84,3.91,157.16,157.16,0,0,0,25,1.22c1.9-.06,3.79-.15,5.69-.29,4.85-.33,9.69-.89,14.49-1.69h0c2.5-.41,5-.88,7.44-1.42s4.65-1.07,7-1.62c7.06-1.69,14.13-3.34,21.36-3.26,10,.11,19.65,3.5,29.57,4.72,11.92,1.47,23.75-.19,35.56-2.78,15.63-3.4,31.22-8.42,46.92-9.89h0c.67-.07,1.35-.13,2-.17,1.51-.12,3-.2,4.55-.23a76.67,76.67,0,0,1,10.48.42,83.59,83.59,0,0,1,11.36,2.12c3.62.91,7.19,2,10.75,3.19h0c2.65.88,5.28,1.81,7.93,2.74h0l.82.29h0A180.47,180.47,0,0,0,375,258.41Z"/><path class="cls-7" d="M166.84,279.67c-8.2-1.34-16.59-2.69-24.76-1.16a19.11,19.11,0,0,1-3.27.48c-1.87,0-3.81-.61-5.59,0a36.41,36.41,0,0,0,7-5.62,12.28,12.28,0,0,1-5.26,0,56.26,56.26,0,0,0,9-10.25l-5.68-.37a40.25,40.25,0,0,0,6.51-7.16l-4.49,0a21.62,21.62,0,0,0,6.67-8.16,13.63,13.63,0,0,1-4.79-.59,33.11,33.11,0,0,0,7.06-8.39,11,11,0,0,1-4.69.51,30,30,0,0,0,6.73-8.41,5.11,5.11,0,0,1-3.55-.18,26.55,26.55,0,0,0,5.73-6.54,2.75,2.75,0,0,1-2.26.77,14.1,14.1,0,0,0,4.33-7.38,16.66,16.66,0,0,0,5.53,6.86,5.28,5.28,0,0,1-2.6-.4,14.76,14.76,0,0,0,7.61,6.73,7.35,7.35,0,0,1-3.93.79,10.63,10.63,0,0,0,7.23,6,7.9,7.9,0,0,1-6.75,2.08,22.17,22.17,0,0,0,8.22,8.18,9.21,9.21,0,0,1-4.67.63,16,16,0,0,0,6.19,7.38l-5.62.83a28.67,28.67,0,0,0,7.9,7l-5.28.85a17.73,17.73,0,0,0,8.27,6.12,17.45,17.45,0,0,1-5.83.79c2.54,2.75,5.5,5.7,9.21,5.75C176,278.71,172.18,280.55,166.84,279.67Z"/><path class="cls-2" d="M320.83,118.38a14.25,14.25,0,0,1-5.21-.79c-1.62-.68-3-2.13-3-3.77,0-1.84,1.84-3.34,3.79-3.63a8.65,8.65,0,0,1,5.59,1.4c-3.35-2.57-4.59-7.47-2.25-10.84s8.27-4.14,11.14-1.12a5,5,0,0,1,1.71-7.21,5.93,5.93,0,0,1,7.63,2.09c1.65-1.62,3.43-3.29,5.74-3.94s5.26.1,6.15,2.19c1.27,3-2.25,6.41-.86,9.35,2.25-1.24,5.43-1.11,7.24.66s1.54,5.11-.75,6.28c1.18-.61,3.29.74,4,1.51a4.05,4.05,0,0,1,.92,4c-1.09,3.6-5.27,3.8-8.65,3.94a62.75,62.75,0,0,1-7.25-.36,105.86,105.86,0,0,0-11,.16Q328.34,118.54,320.83,118.38Z"/><path class="cls-2" d="M146.45,195a13.43,13.43,0,0,0,5.1-2.36,4.42,4.42,0,0,0,1.67-4.59,3.7,3.7,0,0,0-4.57-2.07c-1.22.48-2.13,1.71-3.47,1.63a17,17,0,0,0,.29-6.34,6.68,6.68,0,0,0-4.09-5c-2.25-.83-5.33,0-6.09,2-1.9-.65-1.82-3-2.57-4.6-1.23-2.7-5.78-3.68-8.32-1.8a15,15,0,0,1-2.11,1.68c-3.18,1.63-6.72-2-10.41-2.13a7.74,7.74,0,0,0-5.86,3.13,12.75,12.75,0,0,0,.37,16.54c3.16,3.55,8.44,5.49,13.57,5.3,2.17-.08,4.28-.81,6.45-.69,3.13.17,6.12.8,9.28.75A42.67,42.67,0,0,0,146.45,195Z"/><path class="cls-8" d="M375,261.21v90a162.3,162.3,0,0,0-56-4.2c-15.14,1.38-29.14,4.75-43.07,8.2h0c-4,1-7.9,2-11.87,2.91h0c-1.6.38-3.2.76-4.8,1.12a205.69,205.69,0,0,1-34.86,5.34c-14.18.78-28-1.48-41.74-4.74h0c-15.41-3.66-30.65-8.6-46-11.91a150.09,150.09,0,0,0-26.21-3.52A100.58,100.58,0,0,0,95,345c-8.31,1-16.18,1.61-24,2.53h0a149.59,149.59,0,0,0-27,5.31c-1.62.5-3.25,1-4.89,1.4a136.67,136.67,0,0,1-26.74,4.31q-3.81.24-7.63.26c-1.58,0-3.16,0-4.74,0v-95.7c6.16.38,12.3,1,18.43,1.73,4.2.47,8.39,1,12.59,1.4l2.64.27c3.71.36,7.42.67,11.15.88,1.08.06,2.16.11,3.25.15q4.14.15,8.26.1h0q4,0,8-.24,4.95-.24,9.89-.68c7.52-.64,15-1.55,22.53-2.5l8.83-1.14h0c7.05-.89,14.08-1.76,21.14-2.4a93.82,93.82,0,0,1,9.91-.5c1.36,0,2.72.09,4.07.24a32.25,32.25,0,0,1,3.78.58,42.55,42.55,0,0,1,6.8,2.13c3.73,1.49,7.34,3.35,11,5s7.21,3.11,10.91,4.4a127.22,127.22,0,0,0,67.16,4.54c5-1,9.94-2.36,14.83-3.85,12.09-3.68,23.94-8.29,36.14-11.62.88-.26,1.77-.49,2.66-.72,2.47-.63,5-1.21,7.46-1.72h0a159.6,159.6,0,0,1,29.32-3.22,162.46,162.46,0,0,1,24.74,1.44c2.81.37,5.61.83,8.39,1.36Q369.51,259.77,375,261.21Z"/><path class="cls-9" d="M375,165.79l-.65-.08.57.79a.44.44,0,0,1,.08.11V351.2a162.3,162.3,0,0,0-56-4.2c-15.14,1.38-29.14,4.75-43.07,8.2l19.54-27.3,4.34-6.06-16.51,8.05h0L283,330l0-.09q3.27-7,6.95-13.74a254.82,254.82,0,0,1,18.22-28.83,36.58,36.58,0,0,1-11.94,3.27,105,105,0,0,1,13.22-23,67.07,67.07,0,0,0-16.15,5.71l8.13-14.2h0q4.35-7.62,8.72-15.22c.22-.4.44-.79.67-1.18l5.77-10.07L303,238.49q5.46-8.91,10.72-18,2.17-3.73,4.31-7.5c.57-1,1.14-2,1.7-3q3.9-6.92,7.67-13.9c.2-.36.39-.73.59-1.1.62-1.15,1.24-2.3,1.84-3.45.32-.57.62-1.15.93-1.73-.52.35-1.05.69-1.59,1a25.89,25.89,0,0,1-10,3.27l7.1-11.56.55-.91,14.88-24.24a13.73,13.73,0,0,1-8.64.06c.62-.9,1.23-1.82,1.84-2.73A235.7,235.7,0,0,0,348.33,132c1.85-3.6,3.62-7.25,5.27-11,.36-.81.71-1.69,1.08-2.58h0a17.65,17.65,0,0,1,2.73-4.85c2-2.3,2.43,2.23,2.74,3.5,0,.1,0,.2.08.3a103.08,103.08,0,0,0,3.37,10.89,107.36,107.36,0,0,0,7.45,16c1,1.69,2,3.36,3,5,.3.47.6.93.92,1.39Z"/><path class="cls-9" d="M142.75,198.58c-5.19,1.36-6.62,1.42-11.11.42,5.52,6.41,9,7.79,17.37,10.9a13.11,13.11,0,0,1-9.57,1c1.6,7.84,8.82,14.54,17.56,16.28a20.31,20.31,0,0,1-15.71-2.33,50.35,50.35,0,0,0,16,19.46,22.88,22.88,0,0,1-10.91-.49c3.06,9.16,12.07,15.58,20.6,21.39a145.12,145.12,0,0,0-45.14-1.49c-5.84.73-11.93,1.8-17.54.16a30.36,30.36,0,0,0,12.67-15,20.34,20.34,0,0,1-16.89,3.87,39.61,39.61,0,0,0,13.47-15.26,26.71,26.71,0,0,1-7,4.2c-2.63.93-5.81,1-8.15-.42a63.89,63.89,0,0,0,14.19-14,12.64,12.64,0,0,1-7.35,2.19,2.14,2.14,0,0,1-1.23-.28c-1-.74.06-2.16,1.08-2.92a34.15,34.15,0,0,0,11-13.6,10,10,0,0,1-10.63,1.92,26.66,26.66,0,0,0,7.74-10.43,11.39,11.39,0,0,1-9.19,1.53,81.29,81.29,0,0,0,9.48-11,20.48,20.48,0,0,1-9.47,3.2c.56,0,1.74-1.25,2.19-1.58l2.26-1.75c1.48-1.19,2.93-2.42,4.33-3.69a90.35,90.35,0,0,0,7.79-8c.88-1,2.54-3.1,4.29-2.85,1.54.22,2,2,2.76,3.06,2,2.81,3.49,5.75,5.9,8.35A36.84,36.84,0,0,0,142.75,198.58Z"/><path class="cls-9" d="M125,343.55q-8.27-.23-16.53-.32h0Q71.2,342.79,34,345.09q-5.88.35-11.76.79-9.76.71-19.52,1.61h0l-2.7.25V234.19c.23-.26.47-.51.71-.77q3-3.25,6.13-6.45L0,228.29v-5.92a200.28,200.28,0,0,0,14.69-20.29c.18-.26.34-.52.51-.79a37.62,37.62,0,0,0-7.65.33,35.13,35.13,0,0,0-4.2.86c.13-.28.26-.57.4-.85q5.77-12.44,11.56-24.85a29.07,29.07,0,0,1-11.43-1q10.08-15.42,20.6-30.5L10.68,147c.48-.06,1.56-1.64,1.91-2q.95-1,1.86-2.07,1.88-2.18,3.65-4.45a107.13,107.13,0,0,0,6.64-9.56,108.56,108.56,0,0,0,5.58-10.22,109.34,109.34,0,0,0,4.47-10.79c.26-.74.52-1.48.76-2.22q1.47-4.43,2.55-9c.3-1.27.68-5.8,2.63-3.5,1.71,2,2.64,5,3.67,7.43,1.58,3.7,3.28,7.35,5.06,11a238.37,238.37,0,0,0,12.82,22.76L64.05,137a12.67,12.67,0,0,1-8.29-.06l21.62,36.71a24.16,24.16,0,0,1-11.1-4.27q5.48,10.77,11.25,21.39Q85,204.55,92.93,218l-13.07-5.81L86.32,224l7.74,14.08,7.52,13.67h0l.63,1.15c-.43-.23-.87-.45-1.31-.66a61.82,61.82,0,0,0-14.18-5.05q2.5,3.44,4.71,7.08a104.17,104.17,0,0,1,5.36,9.93q1.41,3,2.62,6A34.15,34.15,0,0,1,88,266.9a259.87,259.87,0,0,1,24.19,42.66L96,301.37l17.92,26.07Z"/><path class="cls-2" d="M375,141.54v25h-.08l-1.43,0q-6.92-.18-13.82-.61c-4.16-.27-9.35-1.46-10.18-5.54-.58-2.9,1.58-5.7,4.12-7.22A14.43,14.43,0,0,1,368,153a10.69,10.69,0,0,1,3.08-8.66A12,12,0,0,1,375,141.54Z"/><path class="cls-2" d="M43.92,113.54c-.69,3.55-5,4.58-8.5,4.81-1.7.11-3.4.21-5.1.28-2.15.12-4.3.2-6.45.26-7,.18-14,.15-21-.19A9.82,9.82,0,0,1,0,118V84.27A7.64,7.64,0,0,1,1.06,85a4,4,0,0,0,1.88,1.16,3.76,3.76,0,0,0,1.63-.34A10,10,0,0,1,14,87.53a11,11,0,0,1,3.94,9c5.61-1,11.32,4.75,10.57,10.62a11.5,11.5,0,0,1,7.08-1.55,11.14,11.14,0,0,1,4.93,1.64C42.6,108.59,44.41,111,43.92,113.54Z"/><path class="cls-10" d="M111,344.22l-.61.18A100.58,100.58,0,0,0,95,345c-8.31,1-16.18,1.61-24,2.53h0a149.59,149.59,0,0,0-27,5.31c-1.62.5-3.25,1-4.89,1.4a136.67,136.67,0,0,1-26.74,4.31q-3.81.24-7.63.26,3.47-2.94,6.63-6.21A32.44,32.44,0,0,1,0,353v-2.93c.91-.84,1.81-1.71,2.7-2.59h0q3.32-3.25,6.41-6.72c1.88-2.11,3.71-4.27,5.47-6.48q3.51-4.41,6.69-9.08l-15.14-1A106.63,106.63,0,0,0,23.5,305.15l-12,.08a57.66,57.66,0,0,0,17.78-21.75,35.91,35.91,0,0,1-12.78-1.57A87.5,87.5,0,0,0,31,266.2q2.31-3.21,4.32-6.63a29.45,29.45,0,0,1-12.5,1.34,79,79,0,0,0,15.77-18.63h0c.75-1.24,1.48-2.49,2.16-3.77a13.58,13.58,0,0,1-9.44-.47c1.05-.86,2.07-1.75,3.07-2.67A71,71,0,0,0,46.6,220.6a7.39,7.39,0,0,1-6,2.07,37.19,37.19,0,0,0,8.09-10.38A37.63,37.63,0,0,0,52.1,203c2,5.4,6.07,10.6,10.53,14.75.26.25.53.49.79.71,1.13,1,2.28,2,3.43,2.81a14.12,14.12,0,0,1-6.24-.8c-.24-.08-.47-.17-.7-.27.1.18.2.36.31.54.45.84,1,1.65,1.48,2.45a39.54,39.54,0,0,0,7.55,8.46,38.3,38.3,0,0,0,10.93,6.48,19.57,19.57,0,0,1-10.46,2.13c.31.69.65,1.36,1,2a28.78,28.78,0,0,0,5.54,7.07h0A27.9,27.9,0,0,0,89,256.14a21,21,0,0,1-18,5.52,55.15,55.15,0,0,0,3.25,5,58.77,58.77,0,0,0,18.63,16.78,24.34,24.34,0,0,1-12.42,1.67A42.66,42.66,0,0,0,97,304.82L82,307a76.7,76.7,0,0,0,20.89,18.53l.16.1L89,327.89a47.31,47.31,0,0,0,19.51,15.34h0Q109.72,343.77,111,344.22Z"/><path class="cls-9" d="M311.41,175a8.62,8.62,0,0,1-5.63,0l14.67,24.89a16.26,16.26,0,0,1-7.53-2.9q8.54,16.78,18.07,33L322.13,226l15.16,27.58a42.86,42.86,0,0,0-10.51-3.87,71.79,71.79,0,0,1,8.6,15.6,23.38,23.38,0,0,1-7.77-2.22A175.15,175.15,0,0,1,344,292l-10.93-5.55,19.66,28.6A696.09,696.09,0,0,0,236,321.71a83.43,83.43,0,0,0,16.16-26.59,13.76,13.76,0,0,1-13.34,5.25l23.42-38.78a19.94,19.94,0,0,1-13.63,2.57,290.59,290.59,0,0,1,24-28.12l-8.78,1.68a135.65,135.65,0,0,0,14.45-19.1,25.62,25.62,0,0,0-8,.8L278.36,202a19.72,19.72,0,0,1-7.75-.71q6.83-10.44,14-20.68l-9.36,1.17c.32,0,1-1.11,1.29-1.37q.64-.71,1.26-1.41c.86-1,1.68-2,2.48-3a70.6,70.6,0,0,0,4.5-6.48,74.33,74.33,0,0,0,9.06-21.83c.21-.86.46-3.94,1.78-2.38,1.17,1.37,1.79,3.4,2.49,5,1.07,2.51,2.23,5,3.43,7.42a162.17,162.17,0,0,0,8.7,15.44Z"/><path class="cls-11" d="M375,318.26a32.78,32.78,0,0,1-14.91-4.66c.85,3.48,1,4.64,2.05,6.65,2.05,4.07,3.87,6.37,5.12,9.15.54,1.21,1.09,2.42,1.63,3.61h0a107.28,107.28,0,0,0,6.1,11.74v6.45a162.3,162.3,0,0,0-56-4.2c-15.14,1.38-29.14,4.75-43.07,8.2h0c-4,1-7.9,2-11.87,2.91h0c-1.6.38-3.2.76-4.8,1.12l1.11-1.63,18.29-26.79,9.91-14.52,7.62-11.16a26.88,26.88,0,0,1-23,3.16A76.55,76.55,0,0,0,301,275.37a38.88,38.88,0,0,1-27.89,4.92,259.41,259.41,0,0,0,18.23-18.7q7.72-8.76,14.65-18.18h0c.1-.14.21-.28.31-.43q2.51-3.4,4.89-6.9a17.51,17.51,0,0,1-16.88,2.79,79.18,79.18,0,0,0,17.51-17.59L298.42,223l2.14-2.3,9-9.68h0l6.81-7.33,2.23-2.39a6,6,0,0,1-2.94,1,6.23,6.23,0,0,1-4.59-1.4q1.38-1.09,2.67-2.31c.24-.21.47-.43.71-.66,1-1,2-2.07,3-3.17A47.14,47.14,0,0,0,325.7,181c.19.53.4,1.06.63,1.58a26.64,26.64,0,0,0,1.69,3.21,30.68,30.68,0,0,0,12.63,11.42,8.82,8.82,0,0,1-8,.63,30.54,30.54,0,0,0,2.43,5.1h0l.28.46a31.83,31.83,0,0,0,15.21,12.77,23.24,23.24,0,0,1-9.84,2.47,20.64,20.64,0,0,1-2.94-.09c.21.42.43.84.66,1.25s.29.54.45.81A53.82,53.82,0,0,0,357.61,240a41.11,41.11,0,0,1-14.06,1.09,51.62,51.62,0,0,1,7.82,10.06h0a.41.41,0,0,1,.05.09h0c1.35,2.09,2.68,4.18,4.11,6.14,2.84,3.92,6,7.31,10.53,9.12a14.06,14.06,0,0,1-13-.06A67,67,0,0,0,373.55,295a23.29,23.29,0,0,1-15.71-1.21c4.74,7.83,9.86,16,17.16,21.3Z"/><path class="cls-2" d="M288.16,185.52c3,.11,6.55,0,8.5-2.34a5.45,5.45,0,0,0-.65-7.28,6,6,0,0,0-7.44-.05c-.47-3.49-1.63-7.14-4.41-9.29s-7.55-1.91-9.19,1.2a21.65,21.65,0,0,0-3.52-8.4,9.56,9.56,0,0,0-7.86-4c-3,.2-6,2.81-5.88,5.87-3.48-2.56-8.51-5.09-11.7-2.18-2.6,2.37-1.81,6.57-.81,9.95h-7.37a6,6,0,0,0-2.64.4,4.09,4.09,0,0,0-1.82,4.46,11.65,11.65,0,0,0,2.38,4.55c-1.68.12-3.49.28-4.78,1.36s-1.62,3.43-.2,4.33c3,1.89,6.68,2,10.21,1.83a62.87,62.87,0,0,1,6.81-.18c4.12.1,8.86.13,13-.18,4.34-.32,8.71-.45,12.88-.65C278.52,184.69,283.34,185.35,288.16,185.52Z"/><path class="cls-12" d="M175.33,325.71a4.78,4.78,0,0,1,1.48,1.24c.27.37.81.77.94,1.18.29.94-.43,2.07-1.08,3.05a4.83,4.83,0,0,1-1.25,1.31,3.52,3.52,0,0,1-1.94.62,1.73,1.73,0,0,1-1.85-1.55c-.06-.8.49-1.65.22-2.41-.18-.49-.65-.85-.83-1.34a1.64,1.64,0,0,1,.85-2.14A3.7,3.7,0,0,1,175.33,325.71Z"/><path class="cls-12" d="M176.41,325.42a2,2,0,0,0,1.17-.3,3.93,3.93,0,0,0,.92-.8,2.22,2.22,0,0,0,.42-.64.82.82,0,0,0,0-.7,1,1,0,0,0-.85-.41,2.47,2.47,0,0,0-1.7.53,1.86,1.86,0,0,0-.67,1,1.11,1.11,0,0,0,.15.8c.07.11.16.19.23.29A.43.43,0,0,0,176.41,325.42Z"/><path class="cls-12" d="M180.85,324.81a4.39,4.39,0,0,0-1.68.2,2.44,2.44,0,0,0-1,.46,1.19,1.19,0,0,0-.39,1,1.16,1.16,0,0,0,.71.84,2.13,2.13,0,0,0,1.25,0,7.23,7.23,0,0,0,1.28-.46,2.06,2.06,0,0,0,1.13-.93.47.47,0,0,0,0-.52,2,2,0,0,0-.53-.42A2.12,2.12,0,0,0,180.85,324.81Z"/><path class="cls-12" d="M177.62,331.43a1.93,1.93,0,0,1,1.15-.37,4.07,4.07,0,0,1,1.2.19,2.35,2.35,0,0,1,.7.32.82.82,0,0,1,.36.6,1,1,0,0,1-.5.8,2.49,2.49,0,0,1-1.72.45,1.8,1.8,0,0,1-1.11-.51,1.14,1.14,0,0,1-.3-.76c0-.12,0-.24,0-.36A.42.42,0,0,1,177.62,331.43Z"/><path class="cls-12" d="M181.63,327.81a4.43,4.43,0,0,0-1.69.19,2.41,2.41,0,0,0-1,.47,1.17,1.17,0,0,0-.39,1,1.15,1.15,0,0,0,.71.85,2.13,2.13,0,0,0,1.25,0,6.52,6.52,0,0,0,1.28-.46,2.06,2.06,0,0,0,1.12-.92.48.48,0,0,0,0-.53,1.84,1.84,0,0,0-.54-.41A2.06,2.06,0,0,0,181.63,327.81Z"/><path class="cls-12" d="M179.77,306.84a3.75,3.75,0,0,1,1.34.61c.27.21.75.39.93.67.4.63.11,1.6-.17,2.45a3.64,3.64,0,0,1-.64,1.21,2.64,2.64,0,0,1-1.29.85,1.32,1.32,0,0,1-1.67-.76c-.21-.56,0-1.3-.33-1.8-.23-.32-.65-.49-.88-.81a1.23,1.23,0,0,1,.18-1.73A2.8,2.8,0,0,1,179.77,306.84Z"/><path class="cls-12" d="M180.5,306.41a1.53,1.53,0,0,0,.8-.45,3.05,3.05,0,0,0,.5-.78,1.87,1.87,0,0,0,.18-.55.61.61,0,0,0-.15-.51.79.79,0,0,0-.71-.13,1.92,1.92,0,0,0-1.13.74,1.38,1.38,0,0,0-.28.88.84.84,0,0,0,.28.56l.22.16A.3.3,0,0,0,180.5,306.41Z"/><path class="cls-12" d="M183.62,305.06a3.17,3.17,0,0,0-1.19.49,1.83,1.83,0,0,0-.63.54.9.9,0,0,0-.06.84.85.85,0,0,0,.69.47,1.59,1.59,0,0,0,.91-.25,5.57,5.57,0,0,0,.84-.6,1.53,1.53,0,0,0,.63-.91.35.35,0,0,0-.13-.37,1.31,1.31,0,0,0-.47-.2A1.67,1.67,0,0,0,183.62,305.06Z"/><path class="cls-12" d="M182.62,310.55a1.48,1.48,0,0,1,.76-.5,2.61,2.61,0,0,1,.92-.11,1.84,1.84,0,0,1,.57.09.61.61,0,0,1,.39.36.79.79,0,0,1-.2.69,1.85,1.85,0,0,1-1.17.68,1.4,1.4,0,0,1-.91-.14.85.85,0,0,1-.37-.5c0-.09,0-.18-.05-.27A.33.33,0,0,1,182.62,310.55Z"/><path class="cls-12" d="M184.8,307.08a3.53,3.53,0,0,0-1.19.49,1.84,1.84,0,0,0-.62.55.87.87,0,0,0-.07.84.85.85,0,0,0,.69.47,1.67,1.67,0,0,0,.91-.25,5.57,5.57,0,0,0,.84-.6,1.59,1.59,0,0,0,.63-.91.36.36,0,0,0-.12-.38,1.62,1.62,0,0,0-1.07-.21Z"/><path class="cls-12" d="M151.11,316.58a5.49,5.49,0,0,1,2.13.86c.45.31,1.21.55,1.51,1,.68.95.29,2.5-.09,3.85a5.64,5.64,0,0,1-.92,1.94,4.2,4.2,0,0,1-2,1.43,2.07,2.07,0,0,1-2.67-1.07c-.37-.87-.07-2.05-.66-2.8-.38-.49-1-.72-1.43-1.21a1.94,1.94,0,0,1,.17-2.73A4.37,4.37,0,0,1,151.11,316.58Z"/><path class="cls-12" d="M152.22,315.85a2.31,2.31,0,0,0,1.22-.77,4.5,4.5,0,0,0,.73-1.25,2.84,2.84,0,0,0,.25-.88,1,1,0,0,0-.28-.79A1.22,1.22,0,0,0,153,312a3,3,0,0,0-1.73,1.23,2.15,2.15,0,0,0-.37,1.41,1.26,1.26,0,0,0,.47.85c.11.09.25.15.36.24A.5.5,0,0,0,152.22,315.85Z"/><path class="cls-12" d="M157,313.51a5.1,5.1,0,0,0-1.83.85,2.9,2.9,0,0,0-.95.89,1.43,1.43,0,0,0,0,1.33,1.34,1.34,0,0,0,1.11.68,2.49,2.49,0,0,0,1.42-.45,8.88,8.88,0,0,0,1.27-1,2.45,2.45,0,0,0,.93-1.47.57.57,0,0,0-.22-.58,2.23,2.23,0,0,0-.76-.27A2.43,2.43,0,0,0,157,313.51Z"/><path class="cls-12" d="M155.83,322.2a2.31,2.31,0,0,1,1.16-.85,4.41,4.41,0,0,1,1.43-.23,2.5,2.5,0,0,1,.91.1,1,1,0,0,1,.64.54,1.22,1.22,0,0,1-.27,1.09,2.91,2.91,0,0,1-1.78,1.15,2.11,2.11,0,0,1-1.45-.16,1.29,1.29,0,0,1-.61-.75c-.05-.14-.05-.28-.1-.42A.53.53,0,0,1,155.83,322.2Z"/><path class="cls-12" d="M159,316.6a5.28,5.28,0,0,0-1.83.86,2.86,2.86,0,0,0-.94.89,1.38,1.38,0,0,0-.05,1.32,1.33,1.33,0,0,0,1.12.69,2.53,2.53,0,0,0,1.41-.45,8.88,8.88,0,0,0,1.28-1,2.49,2.49,0,0,0,.93-1.46.58.58,0,0,0-.23-.59,2.14,2.14,0,0,0-.76-.26A2.43,2.43,0,0,0,159,316.6Z"/><path class="cls-11" d="M182.63,359.83c-15.41-3.66-30.65-8.6-46-11.91a150.09,150.09,0,0,0-26.21-3.52A100.58,100.58,0,0,0,95,345c-8.31,1-16.18,1.61-24,2.53h0a149.59,149.59,0,0,0-27,5.31c-1.62.5-3.25,1-4.89,1.4a136.67,136.67,0,0,1-26.74,4.31l22.77-29.27L60.22,297a38.67,38.67,0,0,1-29.61,3.56,91.52,91.52,0,0,0,33.76-33.24c.73-1.29,1.43-2.59,2.09-3.9a51.41,51.41,0,0,1-10.13,4.14h0A56.51,56.51,0,0,1,30.59,269c1-.84,2.05-1.68,3.07-2.54a312.57,312.57,0,0,0,35.59-34.82q5.35-6.14,10.32-12.51a24.94,24.94,0,0,1-17.87,4.05,22.46,22.46,0,0,1-3.83-.9c.79-.51,1.58-1,2.35-1.55l.39-.27c1-.65,1.89-1.32,2.81-2a94.6,94.6,0,0,0,17-16l-17.25,1.95L89.07,179.9a9.12,9.12,0,0,1-9.68-.43A54.36,54.36,0,0,0,98.18,157c3.07,7.65,10.8,14.84,19.22,18.29a12.76,12.76,0,0,1-10.27.71c3.87,9.31,12.48,17,23,20.69a33.77,33.77,0,0,1-16.43,2.68,64.73,64.73,0,0,0,25.47,24.18,60.27,60.27,0,0,1-18.08,1.23c10.81,8.82,15.25,23.81,29,28.67a20.41,20.41,0,0,1-16.71-.07,70.21,70.21,0,0,0,3.29,6.76,78.44,78.44,0,0,0,23,25.5,33.7,33.7,0,0,1-20.19-1.37c7.43,10.8,15.63,22.21,28.75,27.47a46.87,46.87,0,0,1-25.86-5.15A42.18,42.18,0,0,0,146,315c1.71,3.42,2.63,5.76,4.37,9.16a132,132,0,0,0,8.43,14.49h0c5.29,7.73,11.76,14.63,20.43,19.45C180.35,358.71,181.48,359.29,182.63,359.83Z"/><path class="cls-11" d="M375,335V351.2a162.3,162.3,0,0,0-56-4.2c-15.14,1.38-29.14,4.75-43.07,8.2h0c-4,1-7.9,2-11.87,2.91h0c-1.6.38-3.2.76-4.8,1.12a205.69,205.69,0,0,1-34.86,5.34c-14.18.78-28-1.48-41.74-4.74h0c-15.41-3.66-30.65-8.6-46-11.91a150.09,150.09,0,0,0-26.21-3.52A100.58,100.58,0,0,0,95,345c-8.31,1-16.18,1.61-24,2.53h0a149.59,149.59,0,0,0-27,5.31c-1.62.5-3.25,1-4.89,1.4a136.67,136.67,0,0,1-26.74,4.31q-3.81.24-7.63.26c-1.58,0-3.16,0-4.74,0V337.19a142,142,0,0,0,14.59-2.9l.61-.15c1.69-.43,3.38-.9,5.05-1.39a131.81,131.81,0,0,1,14.89-3.47c12.37-2.19,24.56-2.85,37.78-4.37a118.88,118.88,0,0,1,29.94.64c3.7.51,7.39,1.15,11.07,1.89,15,3,29.87,7.54,44.87,11.21h0c15.68,3.82,31.48,6.7,47.72,5.83,25.64-1.36,48.12-8.73,72.11-13.67q2.19-.45,4.41-.87l.24-.05h0c4-.76,8.05-1.44,12.17-2q4.33-.6,8.77-1c22.06-1.94,44-.2,64.65,6.1h0Q372,333.94,375,335Z"/><path class="cls-12" d="M202.14,308.07a3.33,3.33,0,0,1,1.33.61c.28.21.76.38.94.66.4.63.11,1.6-.17,2.45a3.46,3.46,0,0,1-.64,1.21,2.69,2.69,0,0,1-1.29.85,1.32,1.32,0,0,1-1.67-.75c-.21-.57,0-1.31-.34-1.8-.22-.32-.64-.49-.88-.81a1.26,1.26,0,0,1,.19-1.74A2.82,2.82,0,0,1,202.14,308.07Z"/><path class="cls-12" d="M202.87,307.64a1.42,1.42,0,0,0,.79-.46,3,3,0,0,0,.51-.77,1.93,1.93,0,0,0,.18-.56.62.62,0,0,0-.16-.51.77.77,0,0,0-.7-.12,1.9,1.9,0,0,0-1.13.73,1.37,1.37,0,0,0-.28.89.88.88,0,0,0,.27.55,2,2,0,0,1,.23.17A.33.33,0,0,0,202.87,307.64Z"/><path class="cls-12" d="M206,306.28a3.53,3.53,0,0,0-1.19.49,2,2,0,0,0-.63.54.89.89,0,0,0-.06.85.86.86,0,0,0,.69.46,1.52,1.52,0,0,0,.91-.25,4.44,4.44,0,0,0,.84-.6,1.53,1.53,0,0,0,.63-.9.36.36,0,0,0-.13-.38,1.29,1.29,0,0,0-.47-.19A1.67,1.67,0,0,0,206,306.28Z"/><path class="cls-12" d="M205,311.78a1.4,1.4,0,0,1,.76-.51,2.86,2.86,0,0,1,.92-.1,1.83,1.83,0,0,1,.57.08.65.65,0,0,1,.39.37.81.81,0,0,1-.2.69,2,2,0,0,1-1.17.68,1.34,1.34,0,0,1-.91-.15.79.79,0,0,1-.37-.49,2.74,2.74,0,0,1,0-.28A.29.29,0,0,1,205,311.78Z"/><path class="cls-12" d="M207.17,308.31a3.17,3.17,0,0,0-1.19.49,1.83,1.83,0,0,0-.63.54.9.9,0,0,0-.06.84.85.85,0,0,0,.69.47,1.59,1.59,0,0,0,.91-.25,5.57,5.57,0,0,0,.84-.6,1.53,1.53,0,0,0,.63-.9.36.36,0,0,0-.13-.38,1.14,1.14,0,0,0-.47-.19A1.46,1.46,0,0,0,207.17,308.31Z"/><path class="cls-12" d="M199.91,291.36a2.46,2.46,0,0,1,1,.1,2.61,2.61,0,0,1,.75.22c.39.32.42,1,.43,1.61a2.57,2.57,0,0,1-.15.92,1.84,1.84,0,0,1-.64.82.9.9,0,0,1-1.24-.11c-.26-.32-.27-.85-.61-1.09s-.52-.17-.74-.32a.84.84,0,0,1-.26-1.16A1.9,1.9,0,0,1,199.91,291.36Z"/><path class="cls-12" d="M200.29,290.92a1,1,0,0,0,.41-.46,1.82,1.82,0,0,0,.15-.61,1.27,1.27,0,0,0,0-.39.44.44,0,0,0-.21-.3.53.53,0,0,0-.48.08,1.27,1.27,0,0,0-.56.72,1,1,0,0,0,0,.63.57.57,0,0,0,.3.29l.18.06A.23.23,0,0,0,200.29,290.92Z"/><path class="cls-12" d="M202,289.37a2.28,2.28,0,0,0-.66.58,1.17,1.17,0,0,0-.28.48.62.62,0,0,0,.14.56.64.64,0,0,0,.55.15,1.17,1.17,0,0,0,.53-.36,3.73,3.73,0,0,0,.41-.57,1.06,1.06,0,0,0,.2-.72c0-.11-.06-.19-.16-.22a1,1,0,0,0-.35,0A1.29,1.29,0,0,0,202,289.37Z"/><path class="cls-12" d="M202.55,293.12a1,1,0,0,1,.38-.5,2,2,0,0,1,.56-.26,1.07,1.07,0,0,1,.39-.07.4.4,0,0,1,.33.15.5.5,0,0,1,0,.48,1.25,1.25,0,0,1-.59.69.92.92,0,0,1-.62.11.57.57,0,0,1-.35-.23c0-.06,0-.12-.09-.17A.23.23,0,0,1,202.55,293.12Z"/><path class="cls-12" d="M203.19,290.41a2.12,2.12,0,0,0-.65.58,1.19,1.19,0,0,0-.29.48.65.65,0,0,0,.14.56.61.61,0,0,0,.55.15,1.12,1.12,0,0,0,.53-.36,3.73,3.73,0,0,0,.41-.57,1.06,1.06,0,0,0,.2-.72.25.25,0,0,0-.16-.22,1,1,0,0,0-.35,0A1.29,1.29,0,0,0,203.19,290.41Z"/><path class="cls-12" d="M212.47,289.59a1.92,1.92,0,0,1,.8.08c.18.06.46.06.6.18.32.25.34.81.35,1.3a2,2,0,0,1-.12.74,1.48,1.48,0,0,1-.52.67.72.72,0,0,1-1-.1c-.21-.25-.22-.68-.49-.87s-.43-.14-.6-.27a.67.67,0,0,1-.21-.93A1.53,1.53,0,0,1,212.47,289.59Z"/><path class="cls-12" d="M212.77,289.23a.75.75,0,0,0,.33-.37,1.78,1.78,0,0,0,.13-.49,1.13,1.13,0,0,0,0-.32.33.33,0,0,0-.17-.24.43.43,0,0,0-.39.06,1,1,0,0,0-.45.58.69.69,0,0,0,0,.51.43.43,0,0,0,.24.24l.14,0A.15.15,0,0,0,212.77,289.23Z"/><path class="cls-12" d="M214.15,288a1.8,1.8,0,0,0-.53.46,1,1,0,0,0-.23.4.46.46,0,0,0,.11.44.47.47,0,0,0,.44.13.81.81,0,0,0,.43-.3,2.15,2.15,0,0,0,.33-.46.83.83,0,0,0,.17-.58c0-.08-.05-.15-.13-.17a.67.67,0,0,0-.28,0A.87.87,0,0,0,214.15,288Z"/><path class="cls-12" d="M214.6,291a.81.81,0,0,1,.31-.4,1.57,1.57,0,0,1,.45-.22.89.89,0,0,1,.32-.05.31.31,0,0,1,.26.12.41.41,0,0,1,0,.39,1.05,1.05,0,0,1-.48.56.81.81,0,0,1-.5.09.47.47,0,0,1-.28-.19c0-.05,0-.1-.08-.14A.18.18,0,0,1,214.6,291Z"/><path class="cls-12" d="M215.12,288.82a1.7,1.7,0,0,0-.53.47,1,1,0,0,0-.23.39.49.49,0,0,0,.12.45.46.46,0,0,0,.44.12.94.94,0,0,0,.43-.29,3.83,3.83,0,0,0,.33-.46.9.9,0,0,0,.16-.59.18.18,0,0,0-.13-.17.88.88,0,0,0-.28,0A.85.85,0,0,0,215.12,288.82Z"/></svg>